# xmcd
#
# Track frame offsets: 
#        150
#        11546
#        22712
#        33537
#        46765
#        53870
#        65106
#        78013
#        86434
#        100080
#        120957
#        138023
#        149168
#        160961
#        171667
#        178201
#        187953
#        196806
#        211232
#        221214
#        230924
#        244382
#        259400
#        265007
#        278179
#
# Disc length: 3842 seconds
#
# Revision: 0
# Processed by: cddbd v1.5.2PL0 Copyright (c) Steve Scherf et al.
# Submitted via: ExactAudioCopy v0.99pb5
#
DISCID=6b0f0019
DTITLE=The Who  - A Quick One Box - CD1 - Mono (JP CD UICY-93539)
DYEAR=1900
DGENRE=
TTITLE0=Who - Run Run Run
TTITLE1=Who - Boris The Spider
TTITLE2=Who - I Need You
TTITLE3=Who - Whiskey Man
TTITLE4=Who - Heat Wave
TTITLE5=Who - Cobwebs And Strange
TTITLE6=Who - Don't Look Away
TTITLE7=Who - See My Way
TTITLE8=Who - So Sad About Us
TTITLE9=Who - A Quick One, While He's Away
TTITLE10=Who - Substitute
TTITLE11=Who - Circles
TTITLE12=Who - I'm A Boy
TTITLE13=Who - In The City
TTITLE14=Who - Batman
TTITLE15=Who - Bucket T
TTITLE16=Who - Barbara Ann
TTITLE17=Who - Disguises
TTITLE18=Who - Happy Jack
TTITLE19=Who - I've Been Away
TTITLE20=Who - Substitute (US Single Version)
TTITLE21=Who - I'm A Boy (Alternate Version)
TTITLE22=Who - Batman (Instrumental)
TTITLE23=Who - Happy Jack (Acoustic Version)
TTITLE24=Who - Happy Jack (Alternate Mix)
EXTD=
EXTT0=
EXTT1=
EXTT2=
EXTT3=
EXTT4=
EXTT5=
EXTT6=
EXTT7=
EXTT8=
EXTT9=
EXTT10=
EXTT11=
EXTT12=
EXTT13=
EXTT14=
EXTT15=
EXTT16=
EXTT17=
EXTT18=
EXTT19=
EXTT20=
EXTT21=
EXTT22=
EXTT23=
EXTT24=
PLAYORDER=
